<svg width="90" height="90" viewBox="0 0 90 90" fill="none" xmlns="http://www.w3.org/2000/svg">
<rect width="90" height="90" rx="26" fill="#C94DFA"/>
<path d="M44.9996 38.9999V46.9999M44.9996 54.9999H45.0196M41.5796 28.7199L24.6396 56.9999C24.2903 57.6048 24.1055 58.2905 24.1035 58.989C24.1016 59.6874 24.2825 60.3742 24.6284 60.981C24.9743 61.5878 25.473 62.0934 26.075 62.4476C26.6769 62.8018 27.3612 62.9922 28.0596 62.9999H61.9396C62.638 62.9922 63.3222 62.8018 63.9241 62.4476C64.5261 62.0934 65.0248 61.5878 65.3707 60.981C65.7166 60.3742 65.8975 59.6874 65.8956 58.989C65.8936 58.2905 65.7088 57.6048 65.3596 56.9999L48.4196 28.7199C48.063 28.1321 47.561 27.6462 46.9619 27.3089C46.3629 26.9716 45.687 26.7944 44.9996 26.7944C44.3121 26.7944 43.6362 26.9716 43.0372 27.3089C42.4381 27.6462 41.9361 28.1321 41.5796 28.7199Z" stroke="white" stroke-width="4" stroke-linecap="round" stroke-linejoin="round"/>
</svg>
