<svg width="37" height="37" viewBox="0 0 37 37" fill="none" xmlns="http://www.w3.org/2000/svg">
<path d="M16.958 6.16661H6.16634C5.34859 6.16661 4.56433 6.49146 3.9861 7.0697C3.40786 7.64793 3.08301 8.43219 3.08301 9.24994V30.8333C3.08301 31.651 3.40786 32.4353 3.9861 33.0135C4.56433 33.5918 5.34859 33.9166 6.16634 33.9166H27.7497C28.5674 33.9166 29.3517 33.5918 29.9299 33.0135C30.5082 32.4353 30.833 31.651 30.833 30.8333V20.0416M28.5205 3.85411C29.1338 3.2408 29.9657 2.89624 30.833 2.89624C31.7004 2.89624 32.5322 3.2408 33.1455 3.85411C33.7588 4.46742 34.1034 5.29925 34.1034 6.16661C34.1034 7.03396 33.7588 7.8658 33.1455 8.47911L18.4997 23.1249L12.333 24.6666L13.8747 18.4999L28.5205 3.85411Z" stroke="#3D3D3D" stroke-width="2" stroke-linecap="round" stroke-linejoin="round"/>
</svg>
