<svg width="37" height="37" viewBox="0 0 37 37" fill="none" xmlns="http://www.w3.org/2000/svg">
<path d="M24.667 6.16671H27.7503C28.5681 6.16671 29.3523 6.49156 29.9306 7.06979C30.5088 7.64803 30.8337 8.43229 30.8337 9.25004V30.8334C30.8337 31.6511 30.5088 32.4354 29.9306 33.0136C29.3523 33.5919 28.5681 33.9167 27.7503 33.9167H9.25033C8.43257 33.9167 7.64832 33.5919 7.07008 33.0136C6.49184 32.4354 6.16699 31.6511 6.16699 30.8334V9.25004C6.16699 8.43229 6.49184 7.64803 7.07008 7.06979C7.64832 6.49156 8.43257 6.16671 9.25033 6.16671H12.3337M13.8753 3.08337H23.1253C23.9768 3.08337 24.667 3.7736 24.667 4.62504V7.70837C24.667 8.55981 23.9768 9.25004 23.1253 9.25004H13.8753C13.0239 9.25004 12.3337 8.55981 12.3337 7.70837V4.62504C12.3337 3.7736 13.0239 3.08337 13.8753 3.08337Z" stroke="#3D3D3D" stroke-width="2" stroke-linecap="round" stroke-linejoin="round"/>
</svg>
